<?xml version="1.0" encoding="utf-8" standalone="no"?>
<!DOCTYPE svg PUBLIC "-//W3C//DTD SVG 1.1//EN"
  "http://www.w3.org/Graphics/SVG/1.1/DTD/svg11.dtd">
<svg xmlns:xlink="http://www.w3.org/1999/xlink" width="287.344784pt" height="280.512pt" viewBox="0 0 287.344784 280.512" xmlns="http://www.w3.org/2000/svg" version="1.1">
 <metadata>
  <rdf:RDF xmlns:dc="http://purl.org/dc/elements/1.1/" xmlns:cc="http://creativecommons.org/ns#" xmlns:rdf="http://www.w3.org/1999/02/22-rdf-syntax-ns#">
   <cc:Work>
    <dc:type rdf:resource="http://purl.org/dc/dcmitype/StillImage"/>
    <dc:date>2022-10-25T15:23:25.141156</dc:date>
    <dc:format>image/svg+xml</dc:format>
    <dc:creator>
     <cc:Agent>
      <dc:title>Matplotlib v3.5.3, https://matplotlib.org/</dc:title>
     </cc:Agent>
    </dc:creator>
   </cc:Work>
  </rdf:RDF>
 </metadata>
 <defs>
  <style type="text/css">*{stroke-linejoin: round; stroke-linecap: butt}</style>
 </defs>
 <g id="figure_1">
  <g id="patch_1">
   <path d="M 0 280.512 
L 287.344784 280.512 
L 287.344784 0 
L 0 0 
L 0 280.512 
z
" style="fill: none"/>
  </g>
  <g id="patch_2">
   <path d="M 7.2 273.312 
L 273.312 273.312 
L 273.312 7.2 
L 7.2 7.2 
L 7.2 273.312 
z
" style="fill: none"/>
  </g>
  <g id="pane3d_1">
   <g id="patch_3">
    <path d="M 27.293291 207.697309 
L 115.172164 134.035495 
L 113.950564 27.801991 
L 21.866234 95.000941 
" style="fill: none; opacity: 0.5; stroke: #f2f2f2; stroke-linejoin: miter"/>
   </g>
  </g>
  <g id="pane3d_2">
   <g id="patch_4">
    <path d="M 115.172164 134.035495 
L 256.186401 175.022766 
L 261.218702 65.130171 
L 113.950564 27.801991 
" style="fill: none; opacity: 0.5; stroke: #e6e6e6; stroke-linejoin: miter"/>
   </g>
  </g>
  <g id="pane3d_3">
   <g id="patch_5">
    <path d="M 27.293291 207.697309 
L 176.775269 256.518123 
L 256.186401 175.022766 
L 115.172164 134.035495 
" style="fill: none; opacity: 0.5; stroke: #ececec; stroke-linejoin: miter"/>
   </g>
  </g>
  <g id="axis3d_1">
   <g id="line2d_1">
    <path d="M 27.293291 207.697309 
L 176.775269 256.518123 
" style="fill: none; stroke: #000000; stroke-width: 0.8; stroke-linecap: square"/>
   </g>
   <g id="Line3DCollection_1">
    <path d="M 41.546797 212.352504 
L 128.672049 137.959378 
L 128.02227 31.368758 
" style="fill: none; stroke: #b0b0b0; stroke-width: 0.8"/>
    <path d="M 64.661136 219.901647 
L 150.540082 144.315552 
L 150.828641 37.149508 
" style="fill: none; stroke: #b0b0b0; stroke-width: 0.8"/>
    <path d="M 88.16383 227.577627 
L 172.744902 150.769617 
L 174.001527 43.02316 
" style="fill: none; stroke: #b0b0b0; stroke-width: 0.8"/>
    <path d="M 112.064749 235.383667 
L 195.29435 157.323851 
L 197.549835 48.991969 
" style="fill: none; stroke: #b0b0b0; stroke-width: 0.8"/>
    <path d="M 136.374101 243.323101 
L 218.196512 163.980606 
L 221.482762 55.058269 
" style="fill: none; stroke: #b0b0b0; stroke-width: 0.8"/>
    <path d="M 161.102445 251.399378 
L 241.459729 170.742304 
L 245.80981 61.224466 
" style="fill: none; stroke: #b0b0b0; stroke-width: 0.8"/>
   </g>
   <g id="xtick_1">
    <g id="line2d_2">
     <path d="M 42.305594 211.704594 
L 40.02594 213.651109 
" style="fill: none; stroke: #000000; stroke-width: 0.8; stroke-linecap: square"/>
    </g>
   </g>
   <g id="xtick_2">
    <g id="line2d_3">
     <path d="M 65.409586 219.242901 
L 63.160991 221.221995 
" style="fill: none; stroke: #000000; stroke-width: 0.8; stroke-linecap: square"/>
    </g>
   </g>
   <g id="xtick_3">
    <g id="line2d_4">
     <path d="M 88.901477 226.90777 
L 86.685312 228.920268 
" style="fill: none; stroke: #000000; stroke-width: 0.8; stroke-linecap: square"/>
    </g>
   </g>
   <g id="xtick_4">
    <g id="line2d_5">
     <path d="M 112.791117 234.702417 
L 110.60881 236.749171 
" style="fill: none; stroke: #000000; stroke-width: 0.8; stroke-linecap: square"/>
    </g>
   </g>
   <g id="xtick_5">
    <g id="line2d_6">
     <path d="M 137.088696 242.630164 
L 134.941732 244.712057 
" style="fill: none; stroke: #000000; stroke-width: 0.8; stroke-linecap: square"/>
    </g>
   </g>
   <g id="xtick_6">
    <g id="line2d_7">
     <path d="M 161.804753 250.694451 
L 159.69468 252.812395 
" style="fill: none; stroke: #000000; stroke-width: 0.8; stroke-linecap: square"/>
    </g>
   </g>
  </g>
  <g id="axis3d_2">
   <g id="line2d_8">
    <path d="M 256.186401 175.022766 
L 176.775269 256.518123 
" style="fill: none; stroke: #000000; stroke-width: 0.8; stroke-linecap: square"/>
   </g>
   <g id="Line3DCollection_2">
    <path d="M 31.839298 87.723053 
L 36.778711 199.746442 
L 185.38052 247.687018 
" style="fill: none; stroke: #b0b0b0; stroke-width: 0.8"/>
    <path d="M 47.418992 76.353702 
L 51.612219 187.312701 
L 198.821142 233.893634 
" style="fill: none; stroke: #b0b0b0; stroke-width: 0.8"/>
    <path d="M 62.551904 65.310392 
L 66.038587 175.220234 
L 211.873634 220.498566 
" style="fill: none; stroke: #b0b0b0; stroke-width: 0.8"/>
    <path d="M 77.25698 54.579297 
L 80.074348 163.45518 
L 224.554568 207.484808 
" style="fill: none; stroke: #b0b0b0; stroke-width: 0.8"/>
    <path d="M 91.552111 44.147362 
L 93.735157 152.00442 
L 236.879588 194.836306 
" style="fill: none; stroke: #b0b0b0; stroke-width: 0.8"/>
    <path d="M 105.454204 34.002247 
L 107.035839 140.855524 
L 248.863469 182.537895 
" style="fill: none; stroke: #b0b0b0; stroke-width: 0.8"/>
   </g>
   <g id="xtick_7">
    <g id="line2d_9">
     <path d="M 184.128462 247.283091 
L 187.887862 248.495914 
" style="fill: none; stroke: #000000; stroke-width: 0.8; stroke-linecap: square"/>
    </g>
   </g>
   <g id="xtick_8">
    <g id="line2d_10">
     <path d="M 197.581738 233.501452 
L 201.303098 234.678992 
" style="fill: none; stroke: #000000; stroke-width: 0.8; stroke-linecap: square"/>
    </g>
   </g>
   <g id="xtick_9">
    <g id="line2d_11">
     <path d="M 210.646679 220.117626 
L 214.330613 221.2614 
" style="fill: none; stroke: #000000; stroke-width: 0.8; stroke-linecap: square"/>
    </g>
   </g>
   <g id="xtick_10">
    <g id="line2d_12">
     <path d="M 223.339862 207.114632 
L 226.986978 208.226073 
" style="fill: none; stroke: #000000; stroke-width: 0.8; stroke-linecap: square"/>
    </g>
   </g>
   <g id="xtick_11">
    <g id="line2d_13">
     <path d="M 235.67693 194.476445 
L 239.287828 195.556903 
" style="fill: none; stroke: #000000; stroke-width: 0.8; stroke-linecap: square"/>
    </g>
   </g>
   <g id="xtick_12">
    <g id="line2d_14">
     <path d="M 247.672663 182.187924 
L 251.247938 183.238678 
" style="fill: none; stroke: #000000; stroke-width: 0.8; stroke-linecap: square"/>
    </g>
   </g>
  </g>
  <g id="axis3d_3">
   <g id="line2d_15">
    <path d="M 256.186401 175.022766 
L 261.218702 65.130171 
" style="fill: none; stroke: #000000; stroke-width: 0.8; stroke-linecap: square"/>
   </g>
   <g id="Line3DCollection_3">
    <path d="M 256.282814 172.917346 
L 115.148711 131.99596 
L 27.189487 205.541739 
" style="fill: none; stroke: #b0b0b0; stroke-width: 0.8"/>
    <path d="M 257.216872 152.519898 
L 114.921595 112.245362 
L 26.183474 184.651235 
" style="fill: none; stroke: #b0b0b0; stroke-width: 0.8"/>
    <path d="M 258.166581 131.780692 
L 114.690856 92.179717 
L 25.15996 163.397309 
" style="fill: none; stroke: #b0b0b0; stroke-width: 0.8"/>
    <path d="M 259.132336 110.691068 
L 114.456407 71.791427 
L 24.118485 141.770393 
" style="fill: none; stroke: #b0b0b0; stroke-width: 0.8"/>
    <path d="M 260.114548 89.242067 
L 114.218158 51.072647 
L 23.05857 119.760582 
" style="fill: none; stroke: #b0b0b0; stroke-width: 0.8"/>
    <path d="M 261.113641 67.424426 
L 113.976015 30.015274 
L 21.979723 97.357618 
" style="fill: none; stroke: #b0b0b0; stroke-width: 0.8"/>
   </g>
   <g id="xtick_13">
    <g id="line2d_16">
     <path d="M 255.098262 172.573889 
L 258.654736 173.605077 
" style="fill: none; stroke: #000000; stroke-width: 0.8; stroke-linecap: square"/>
    </g>
   </g>
   <g id="xtick_14">
    <g id="line2d_17">
     <path d="M 256.02211 152.181738 
L 259.609263 153.197028 
" style="fill: none; stroke: #000000; stroke-width: 0.8; stroke-linecap: square"/>
    </g>
   </g>
   <g id="xtick_15">
    <g id="line2d_18">
     <path d="M 256.961431 131.448057 
L 260.579796 132.446768 
" style="fill: none; stroke: #000000; stroke-width: 0.8; stroke-linecap: square"/>
    </g>
   </g>
   <g id="xtick_16">
    <g id="line2d_19">
     <path d="M 257.916617 110.364192 
L 261.566741 111.345617 
" style="fill: none; stroke: #000000; stroke-width: 0.8; stroke-linecap: square"/>
    </g>
   </g>
   <g id="xtick_17">
    <g id="line2d_20">
     <path d="M 258.888072 88.921197 
L 262.570518 89.884598 
" style="fill: none; stroke: #000000; stroke-width: 0.8; stroke-linecap: square"/>
    </g>
   </g>
   <g id="xtick_18">
    <g id="line2d_21">
     <path d="M 259.876217 67.109816 
L 263.591561 68.054427 
" style="fill: none; stroke: #000000; stroke-width: 0.8; stroke-linecap: square"/>
    </g>
   </g>
  </g>
  <g id="axes_1">
   <g id="line2d_22">
    <path d="M 174.712463 193.37716 
L 179.865275 197.39128 
L 184.58571 201.283884 
L 188.77681 205.015796 
L 192.35084 208.550353 
L 195.231082 211.854053 
L 197.353443 214.897153 
L 198.667817 217.654204 
L 199.139157 220.104502 
L 198.748195 222.232439 
L 197.491815 224.027734 
L 195.383026 225.485548 
L 192.45057 226.606464 
L 188.738146 227.396352 
L 184.303311 227.866097 
L 179.216074 228.031236 
L 173.557252 227.911485 
L 167.416633 227.530199 
L 160.891016 226.913767 
L 154.082186 226.090971 
L 147.094879 225.09233 
L 140.034798 223.949443 
L 126.112721 221.358904 
L 113.1124 218.570272 
L 101.740151 215.814986 
L 92.575591 213.291509 
L 86.047044 211.155779 
L 83.860226 210.268941 
L 82.418019 209.515487 
L 81.726969 208.900972 
L 81.783285 208.427815 
L 82.57314 208.095395 
L 84.073068 207.900164 
L 86.250469 207.835812 
L 92.46519 208.06184 
L 100.798198 208.675634 
L 138.624316 211.899531 
L 149.388759 212.50782 
L 159.078926 212.727203 
L 163.374917 212.65945 
L 167.24086 212.460882 
L 170.638759 212.125136 
L 173.539215 211.64841 
L 175.921725 211.029512 
L 177.774811 210.269862 
L 179.095958 209.373432 
L 179.891388 208.346642 
L 180.17566 207.198208 
L 179.971128 205.938944 
L 179.307251 204.581529 
L 178.219809 203.14025 
L 176.750019 201.630717 
L 174.943586 200.069565 
L 172.849724 198.474155 
L 168.00808 195.25179 
L 162.651152 192.105605 
L 157.199297 189.170812 
L 149.678468 185.424002 
L 142.447979 182.114771 
L 139.684277 181.064242 
L 139.735705 181.157823 
L 140.673438 181.743687 
L 148.62662 186.079729 
L 154.033444 189.142816 
L 159.191112 192.347002 
L 162.077137 194.399902 
L 164.285508 196.28907 
L 165.088467 197.151148 
L 165.672925 197.949297 
L 166.030564 198.678396 
L 166.157099 199.334621 
L 166.052261 199.91546 
L 165.719699 200.419691 
L 165.166815 200.847345 
L 164.404528 201.199647 
L 163.446987 201.478937 
L 161.016787 201.832823 
L 158.039994 201.946017 
L 154.706593 201.865951 
L 149.478981 201.501032 
L 141.733429 200.683941 
L 136.338604 200.138415 
L 136.205612 200.159947 
L 136.226546 200.206531 
L 137.129855 200.479139 
L 140.717653 201.210097 
L 145.336398 201.913975 
L 148.612398 202.190848 
L 150.413543 202.149184 
L 151.514443 201.880194 
L 151.854944 201.584516 
L 151.906576 201.210527 
L 151.708994 200.775324 
L 151.057378 200.050772 
L 149.500939 198.820366 
L 147.321438 197.145451 
L 147.297777 196.956075 
L 147.582487 196.90746 
L 148.606172 197.082498 
L 150.879159 197.74504 
L 152.341617 198.342571 
L 152.505158 198.566528 
L 152.188168 198.650861 
L 150.764129 198.630087 
L 145.121008 198.379094 
L 143.738587 198.487757 
L 142.794071 198.772207 
L 142.491234 199.07832 
L 142.49068 199.484097 
L 142.808505 199.988321 
L 143.440692 200.582762 
L 144.91547 201.607041 
L 147.555996 203.079488 
L 150.932585 204.675338 
L 152.866065 205.391235 
L 152.952047 205.37773 
L 152.919361 205.304213 
L 152.078728 204.707197 
L 141.943523 198.348524 
L 139.988718 196.837579 
L 138.432879 195.36658 
L 137.451208 193.999508 
L 137.224527 193.373554 
L 137.196057 192.794889 
L 137.379281 192.269349 
L 137.784822 191.801976 
L 138.420147 191.39693 
L 139.289325 191.057407 
L 140.392825 190.785579 
L 143.285753 190.448288 
L 147.025989 190.380437 
L 151.478601 190.559546 
L 159.055281 191.200824 
L 166.928884 192.113102 
L 182.336791 194.054116 
L 182.132486 193.964054 
L 179.152635 193.295884 
L 172.766633 192.098987 
L 163.564062 190.570045 
L 152.558576 189.017795 
L 144.858569 188.157199 
L 137.360082 187.576473 
L 130.485098 187.39316 
L 127.40633 187.484468 
L 124.627682 187.713824 
L 122.19009 188.091626 
L 120.129866 188.626703 
L 118.478097 189.326119 
L 117.260103 190.195001 
L 116.494959 191.236377 
L 116.195081 192.451038 
L 116.365887 193.837415 
L 117.005536 195.391481 
L 118.104741 197.106682 
L 119.646685 198.973887 
L 121.607023 200.981376 
L 123.953988 203.11486 
L 126.648616 205.357533 
L 132.89116 210.091285 
L 139.895022 215.002722 
L 162.553988 230.433889 
L 164.613051 232.032884 
L 166.186833 233.400998 
L 167.226735 234.51676 
L 167.693132 235.361808 
L 167.556491 235.921311 
L 166.798298 236.184335 
L 165.411767 236.144128 
L 163.402294 235.798315 
L 160.787641 235.149005 
L 157.59784 234.20279 
L 149.671761 231.467773 
L 140.08891 227.729663 
L 129.460542 223.180959 
L 118.500969 218.055609 
L 113.136112 215.356909 
L 107.977479 212.61175 
L 103.120755 209.853223 
L 98.658592 207.113723 
L 94.679187 204.424456 
L 91.264973 201.814991 
L 88.49143 199.312846 
L 86.426007 196.94314 
L 85.127182 194.728269 
L 84.643624 192.68765 
L 85.013484 190.837495 
L 86.263794 189.190639 
L 88.409964 187.756405 
L 91.455397 186.540513 
L 95.391202 185.545021 
L 100.196003 184.768313 
L 105.835878 184.205116 
L 112.2644 183.846569 
L 119.422815 183.680315 
L 127.240368 183.690653 
L 135.63478 183.858727 
L 144.512907 184.162764 
L 144.512907 184.162764 
" clip-path="url(#pcb9b516d9d)" style="fill: none; stroke: #a0c0e0; stroke-width: 1.5; stroke-linecap: square"/>
   </g>
   <g id="line2d_23">
    <path d="M 78.446243 102.675512 
L 52.916451 121.086418 
L 43.576778 127.552876 
L 39.809485 129.912779 
L 38.789308 130.366049 
L 38.617463 130.274225 
L 38.836224 129.879897 
L 39.851063 128.757104 
L 42.341579 126.381221 
L 47.959915 121.36624 
L 64.471528 107.066991 
L 74.107879 98.544138 
L 77.720315 95.109418 
L 79.308674 93.344081 
L 79.673216 92.629395 
L 79.574822 92.487794 
L 79.30447 92.478224 
L 78.60681 92.687924 
L 76.797567 93.532366 
L 72.836035 95.696733 
L 65.756902 99.578872 
L 63.32841 100.662189 
L 62.263732 100.92181 
L 61.816678 100.819614 
L 61.700149 100.575703 
L 61.800694 100.055087 
L 62.257947 99.15156 
L 63.466442 97.343458 
L 66.303179 93.191415 
L 67.139119 91.560097 
L 67.552546 90.249677 
L 67.659393 89.171242 
L 67.522156 88.276694 
L 67.21696 87.730033 
L 66.770709 87.399996 
L 66.120582 87.222669 
L 65.101682 87.210332 
L 61.546688 87.423415 
L 61.288586 87.168749 
L 61.270118 86.846261 
L 61.520756 86.209934 
L 62.328034 85.044853 
L 64.053826 83.081394 
L 67.01082 80.088106 
L 78.501785 68.738164 
L 79.02253 67.907912 
L 79.0195 67.688825 
L 78.82543 67.611759 
L 78.157263 67.776197 
L 76.535359 68.537678 
L 73.33083 70.361156 
L 66.85288 74.384692 
L 51.312554 84.427511 
L 41.725139 90.487924 
L 38.338767 92.413518 
L 37.279589 92.848906 
L 37.038477 92.795525 
L 37.194406 92.449044 
L 38.203772 91.357444 
L 41.024511 88.815717 
L 46.84228 83.953732 
L 58.60995 74.491571 
L 77.333512 59.710911 
L 77.333512 59.710911 
" clip-path="url(#pcb9b516d9d)" style="fill: none; stroke: #a0c0e0; stroke-width: 1.5; stroke-linecap: square"/>
   </g>
   <g id="line2d_24">
    <path d="M 210.224643 99.330658 
L 240.123629 106.850792 
L 249.306452 109.000371 
L 250.995451 109.239292 
L 250.495555 108.996891 
L 246.938443 107.824221 
L 236.01636 104.563904 
L 202.20444 94.834568 
L 165.507258 84.240046 
L 155.167128 81.046022 
L 153.829817 80.478089 
L 154.127337 80.453291 
L 156.561637 80.896724 
L 164.283128 82.651915 
L 188.98438 88.636217 
L 216.955768 95.377397 
L 225.11359 97.130441 
L 226.234725 97.21538 
L 226.045867 97.057474 
L 224.249272 96.362552 
L 218.464568 94.495328 
L 200.266594 88.995435 
L 180.400093 82.95232 
L 174.753783 81.023953 
L 173.97106 80.603908 
L 174.088481 80.529436 
L 175.281232 80.635526 
L 179.154178 81.348946 
L 191.422069 83.975705 
L 204.925315 86.818049 
L 208.769489 87.410707 
L 209.303516 87.338046 
L 209.227249 87.210547 
L 208.435434 86.785888 
L 205.883177 85.787076 
L 197.986593 83.050843 
L 189.620843 80.086807 
L 187.331828 79.054157 
L 187.032641 78.761683 
L 187.087511 78.669539 
L 187.572836 78.584543 
L 189.090388 78.665579 
L 193.688605 79.239297 
L 197.957913 79.723875 
L 199.566606 79.719286 
L 199.899082 79.592329 
L 199.923643 79.384114 
L 199.668893 79.102245 
L 198.860196 78.567068 
L 195.973074 77.055473 
L 193.793758 75.838325 
L 193.01027 75.203179 
L 192.846018 74.838101 
L 192.930903 74.645745 
L 193.315369 74.424627 
L 194.200674 74.227334 
L 197.806893 73.666582 
L 198.094755 73.418787 
L 198.10446 73.20583 
L 197.818266 72.807658 
L 196.876198 72.130213 
L 194.550361 70.875887 
L 191.506725 69.21955 
L 191.033118 68.77289 
L 191.056881 68.563649 
L 191.387861 68.434445 
L 192.478491 68.395285 
L 194.930777 68.602476 
L 203.467865 69.525657 
L 203.962542 69.437448 
L 204.019045 69.343716 
L 203.716179 69.048183 
L 202.83824 68.603315 
L 200.474092 67.664343 
L 194.364396 65.537623 
L 183.225346 61.677972 
L 181.758904 60.974671 
L 181.682382 60.847041 
L 181.830165 60.777477 
L 182.819376 60.817809 
L 186.018778 61.32178 
L 193.030994 62.702574 
L 215.070864 67.199815 
L 217.391179 67.470756 
L 217.515096 67.393366 
L 217.288754 67.225605 
L 215.762936 66.613368 
L 210.866761 65.023246 
L 197.18887 60.954037 
L 168.461086 52.477273 
L 165.196898 51.31479 
L 165.011193 51.159404 
L 165.307714 51.127968 
L 167.373774 51.4435 
L 174.058965 52.837216 
L 188.599314 56.13741 
L 233.781706 66.52166 
L 238.61659 67.429007 
L 238.939743 67.401174 
L 238.574542 67.197022 
L 235.753065 66.253408 
L 226.513273 63.557208 
L 200.831474 56.438541 
L 147.825271 41.809792 
L 141.640459 39.908888 
L 141.16489 39.680304 
L 141.530653 39.666427 
L 144.822194 40.291604 
L 155.976096 42.813484 
L 180.639312 48.667115 
L 180.639312 48.667115 
" clip-path="url(#pcb9b516d9d)" style="fill: none; stroke: #a0c0e0; stroke-width: 1.5; stroke-linecap: square"/>
   </g>
   <g id="line2d_25">
    <path d="M 175.513551 130.174983 
L 180.806073 133.89169 
L 185.656422 137.492794 
L 189.964769 140.940904 
L 193.640684 144.20101 
L 196.605 147.241103 
L 198.791494 150.03275 
L 200.148299 152.551617 
L 200.639031 154.777896 
L 200.243553 156.696649 
L 198.958367 158.298036 
L 196.796604 159.577419 
L 193.787626 160.535357 
L 189.976234 161.177463 
L 185.421534 161.514154 
L 180.195487 161.560299 
L 174.381211 161.334763 
L 168.071079 160.859887 
L 161.364694 160.160908 
L 154.366793 159.265343 
L 147.185144 158.202357 
L 132.704637 155.695255 
L 118.77076 152.882451 
L 106.161469 149.995712 
L 95.541372 147.24107 
L 87.430525 144.787896 
L 84.434111 143.715429 
L 82.185231 142.761746 
L 80.701432 141.935102 
L 79.989463 141.240724 
L 80.04547 140.680867 
L 80.855305 140.254889 
L 82.39494 139.959377 
L 84.630967 139.788294 
L 87.521204 139.733157 
L 95.055898 139.925874 
L 104.514296 140.429439 
L 138.474028 142.438077 
L 149.548543 142.795031 
L 159.519864 142.782469 
L 163.941107 142.607665 
L 167.920084 142.308668 
L 171.417589 141.879476 
L 174.403265 141.316522 
L 176.855927 140.618723 
L 178.763688 139.787478 
L 180.123905 138.82661 
L 180.942946 137.742268 
L 181.235777 136.542775 
L 181.025399 135.238442 
L 180.342145 133.841348 
L 179.222862 132.365084 
L 177.709999 130.82449 
L 175.850628 129.235367 
L 173.695432 127.614192 
L 168.712133 124.343222 
L 163.198757 121.146076 
L 157.587956 118.15063 
L 149.848162 114.280168 
L 139.562035 109.292676 
L 139.959115 109.380864 
L 143.884851 110.948458 
L 150.596943 113.876142 
L 156.18597 116.522804 
L 161.221311 119.195603 
L 163.871373 120.846765 
L 165.742262 122.309947 
L 166.34632 122.953849 
L 166.716575 123.532454 
L 166.848555 124.04216 
L 166.741934 124.480605 
L 166.400427 124.846646 
L 165.831625 125.140324 
L 165.046754 125.362809 
L 162.890043 125.604052 
L 160.080184 125.599051 
L 156.80138 125.388265 
L 151.451677 124.792818 
L 144.582797 123.747758 
L 138.310722 122.543173 
L 136.096613 121.939237 
L 135.980234 121.782976 
L 136.46698 121.714897 
L 138.89704 121.770404 
L 145.385315 121.95547 
L 148.005842 121.850506 
L 150.088391 121.550512 
L 151.094131 121.231312 
L 151.770446 120.8183 
L 152.122962 120.319255 
L 152.17694 119.746707 
L 151.973309 119.116761 
L 151.300553 118.104705 
L 150.028718 116.730353 
L 147.798997 114.372311 
L 147.440495 113.721886 
L 147.416466 113.213123 
L 147.711484 112.83626 
L 148.277665 112.572573 
L 149.330633 112.354692 
L 152.833116 111.802775 
L 152.751421 111.657067 
L 152.284694 111.379712 
L 151.013708 110.906202 
L 147.99902 110.069214 
L 144.651769 109.358689 
L 142.75504 109.151872 
L 142.399841 109.28153 
L 142.563373 109.483962 
L 143.425332 109.950548 
L 145.584687 110.799555 
L 149.168389 111.928141 
L 151.776724 112.531383 
L 153.005083 112.603991 
L 153.301245 112.408335 
L 153.267694 112.227965 
L 152.81575 111.692826 
L 151.182106 110.448577 
L 140.81439 103.381153 
L 138.967202 101.766015 
L 137.627504 100.218737 
L 137.202677 99.488667 
L 136.967081 98.796571 
L 136.937376 98.14849 
L 137.127581 97.549822 
L 137.548745 97.005222 
L 138.208643 96.518527 
L 139.111528 96.092679 
L 140.257913 95.729668 
L 141.64441 95.43049 
L 145.104088 95.022453 
L 149.382723 94.855814 
L 154.309233 94.901569 
L 162.399564 95.269029 
L 183.11447 96.520231 
L 183.882174 96.312428 
L 183.671254 96.117649 
L 182.017121 95.542512 
L 178.735429 94.732419 
L 171.025047 93.163171 
L 160.690748 91.372843 
L 152.911281 90.208285 
L 144.899392 89.191039 
L 137.096352 88.432604 
L 129.940982 88.041324 
L 126.73607 88.014623 
L 123.843089 88.115343 
L 121.304633 88.353057 
L 119.158502 88.735885 
L 117.437083 89.270329 
L 116.166787 89.961106 
L 115.367554 90.811004 
L 115.052422 91.82075 
L 115.227175 92.988906 
L 115.890061 94.311768 
L 117.031603 95.783309 
L 118.634494 97.395128 
L 120.673598 99.136435 
L 123.116046 100.99407 
L 125.92146 102.952551 
L 132.424294 107.099065 
L 139.725148 111.409992 
L 165.529716 126.237743 
L 167.175583 127.38774 
L 168.26395 128.304253 
L 168.7532 128.970291 
L 168.612292 129.372148 
L 167.82174 129.499747 
L 166.374366 129.346898 
L 164.27578 128.911489 
L 161.544572 128.195578 
L 154.322654 125.951227 
L 145.105738 122.711356 
L 134.462597 118.630743 
L 123.093315 113.909461 
L 117.378858 111.379771 
L 111.77929 108.777665 
L 106.396089 106.133873 
L 101.329068 103.478924 
L 96.674801 100.842661 
L 92.52515 98.253791 
L 88.965916 95.73947 
L 86.075606 93.324936 
L 83.924336 91.033182 
L 82.57286 88.884677 
L 82.071717 86.89713 
L 82.460509 85.085291 
L 83.767284 83.460803 
L 86.00803 82.032079 
L 89.186276 80.80423 
L 93.292792 79.779014 
L 98.305399 78.954826 
L 104.188889 78.326725 
L 110.89506 77.886486 
L 118.362893 77.622702 
L 126.518864 77.520908 
L 135.277428 77.563763 
L 144.541684 77.731263 
L 144.541684 77.731263 
" clip-path="url(#pcb9b516d9d)" style="fill: none; stroke: #43597d; stroke-width: 2; stroke-linecap: square"/>
   </g>
  </g>
 </g>
 <defs>
  <clipPath id="pcb9b516d9d">
   <rect x="7.2" y="7.2" width="266.112" height="266.112"/>
  </clipPath>
 </defs>
</svg>
